<?xml version="1.0" standalone="no"?>
<!DOCTYPE svg PUBLIC "-//W3C//DTD SVG 20010904//EN"
 "http://www.w3.org/TR/2001/REC-SVG-20010904/DTD/svg10.dtd">
<svg version="1.0" xmlns="http://www.w3.org/2000/svg"
 width="200.000000pt" height="200.000000pt" viewBox="0 0 200.000000 200.000000"
 preserveAspectRatio="xMidYMid meet">

<g transform="translate(0.000000,200.000000) scale(0.100000,-0.100000)"
fill="#000000" stroke="none">
<path d="M1649 1101 c-20 -16 -24 -29 -24 -74 0 -60 22 -97 57 -97 58 0 90
109 48 163 -25 32 -49 34 -81 8z"/>
<path d="M1795 1040 c-12 -14 -20 -41 -23 -78 -3 -47 -1 -60 16 -75 25 -23 47
-14 66 28 20 42 20 94 0 123 -19 27 -36 28 -59 2z"/>
<path d="M990 1012 c-25 -25 -30 -38 -30 -77 0 -38 5 -52 29 -76 39 -39 106
-41 148 -5 24 21 28 31 28 80 0 72 -22 97 -94 104 -46 4 -53 2 -81 -26z"/>
<path d="M1887 991 c-4 -18 -6 -54 -6 -80 l1 -46 9 60 c11 70 8 119 -4 66z"/>
<path d="M730 958 c-13 -7 -31 -30 -38 -51 -13 -33 -13 -42 2 -82 32 -83 121
-111 177 -56 44 44 41 96 -8 149 -43 46 -92 61 -133 40z"/>
<path d="M1458 930 c-27 -28 -30 -36 -25 -73 11 -80 99 -116 152 -62 45 44 28
117 -35 150 -42 22 -58 19 -92 -15z"/>
<path d="M1674 845 c-23 -9 -36 -25 -49 -57 -15 -41 -15 -48 -1 -81 19 -46 52
-49 96 -9 74 65 37 182 -46 147z"/>
<path d="M1225 831 c-40 -17 -60 -51 -60 -101 0 -57 21 -85 76 -101 31 -10 43
-9 75 7 96 47 73 188 -31 199 -22 3 -49 1 -60 -4z"/>
<path d="M1828 820 c-30 -18 -60 -79 -60 -122 1 -89 47 -71 81 32 28 89 22
115 -21 90z"/>
<path d="M927 740 c-34 -27 -40 -61 -21 -109 40 -100 195 -104 220 -6 23 91
-122 175 -199 115z"/>
<path d="M658 693 c-9 -2 -22 -19 -28 -38 -22 -66 37 -141 120 -152 58 -8 90
16 90 66 0 82 -95 147 -182 124z"/>
<path d="M1454 672 c-47 -38 -57 -93 -23 -136 13 -17 30 -26 49 -26 36 0 86
41 93 76 6 32 -8 85 -25 96 -22 13 -72 8 -94 -10z"/>
<path d="M424 635 c-15 -24 -15 -28 1 -70 18 -48 52 -81 93 -92 55 -13 81 40
52 104 -34 76 -114 107 -146 58z"/>
<path d="M1622 575 c-34 -38 -51 -99 -35 -124 6 -9 24 -17 41 -19 37 -4 77 34
94 91 26 85 -41 120 -100 52z"/>
<path d="M1162 545 c-42 -35 -44 -80 -4 -118 60 -58 182 -20 182 56 -1 51 -32
80 -93 85 -46 4 -57 1 -85 -23z"/>
<path d="M890 493 c-39 -14 -52 -71 -25 -107 45 -59 142 -76 183 -33 28 30 27
65 -3 100 -37 41 -103 59 -155 40z"/>
<path d="M613 445 c-32 -23 -28 -56 10 -93 80 -78 206 -57 162 27 -32 63 -126
99 -172 66z"/>
<path d="M420 435 c-28 -34 33 -125 85 -125 54 0 57 60 5 111 -31 32 -70 38
-90 14z"/>
<path d="M300 432 c0 -4 16 -23 35 -42 36 -35 47 -31 19 8 -16 24 -54 48 -54
34z"/>
<path d="M1382 423 c-20 -9 -41 -31 -50 -51 -16 -33 -16 -35 7 -53 58 -47 191
5 191 75 0 45 -84 61 -148 29z"/>
<path d="M1592 383 c-34 -16 -92 -76 -92 -94 0 -13 44 14 92 57 60 53 60 67 0
37z"/>
<path d="M1130 343 c-29 -10 -70 -57 -70 -78 0 -45 71 -81 128 -66 78 22 107
90 56 130 -26 20 -79 27 -114 14z"/>
<path d="M578 290 c-61 -37 54 -128 126 -100 33 12 35 48 3 78 -27 25 -103 38
-129 22z"/>
<path d="M810 287 c-52 -26 -30 -75 47 -103 58 -20 98 -17 130 10 l28 24 -29
31 c-45 47 -125 64 -176 38z"/>
<path d="M461 287 c2 -1 13 -9 24 -17 19 -14 19 -14 6 3 -7 9 -18 17 -24 17
-6 0 -8 -1 -6 -3z"/>
<path d="M1316 234 c-74 -27 -109 -82 -43 -69 45 10 157 63 157 75 0 14 -68
11 -114 -6z"/>
<path d="M1006 160 c-32 -10 -50 -31 -36 -40 11 -7 179 6 187 14 25 24 -93 45
-151 26z"/>
<path d="M800 139 c86 -21 109 -20 63 4 -19 10 -53 17 -85 16 l-53 -1 75 -19z"/>
</g>
</svg>
